<svg width="40" height="40" viewBox="0 0 40 40" fill="none" xmlns="http://www.w3.org/2000/svg">
<path d="M20 0C8.99999 0 0 8.94759 0 19.9677C0 29.9316 7.31999 38.2016 16.88 39.6962V25.7467H11.8V19.9677H16.88V15.5636C16.88 10.5617 19.86 7.8117 24.44 7.8117C26.62 7.8117 28.9 8.19033 28.9 8.19033V13.1125H26.38C23.9 13.1125 23.12 14.6469 23.12 16.2212V19.9677H28.68L27.78 25.7467H23.12V39.6962C27.8329 38.9546 32.1244 36.5586 35.2198 32.9408C38.3153 29.323 40.0107 24.7217 40 19.9677C40 8.94759 31 0 20 0Z" fill="url(#paint0_linear_69_202)"/>
<defs>
<linearGradient id="paint0_linear_69_202" x1="20" y1="0" x2="20" y2="39.6962" gradientUnits="userSpaceOnUse">
<stop stop-color="#3B82F6"/>
<stop offset="1" stop-color="#8B5CF6"/>
</linearGradient>
</defs>
</svg>
