<svg width="40" height="40" viewBox="0 0 40 40" fill="none" xmlns="http://www.w3.org/2000/svg">
<path d="M20.0804 0.000106971C9.10553 0.000106971 0.160804 8.83249 0.160804 19.6695C0.160804 23.1429 1.08543 26.5171 2.81407 29.4943L0 39.6962L10.5528 36.9572C13.4673 38.5252 16.7437 39.3588 20.0804 39.3588C31.0553 39.3588 40 30.5264 40 19.6894C40 14.4296 37.9296 9.48747 34.1709 5.77589C32.3278 3.93817 30.1327 2.48105 27.7136 1.48943C25.2945 0.497814 22.6997 -0.00846156 20.0804 0.000106971ZM20.1005 3.31473C24.5226 3.31473 28.6633 5.02166 31.799 8.11796C33.3375 9.63736 34.5572 11.4415 35.3885 13.4271C36.2197 15.4128 36.6461 17.5408 36.6432 19.6894C36.6432 28.7004 29.206 36.0243 20.0804 36.0243C17.1055 36.0243 14.191 35.2502 11.6583 33.7418L11.0553 33.4044L4.78392 35.0319L6.45226 28.9981L6.05025 28.363C4.39105 25.7597 3.5129 22.7454 3.51759 19.6695C3.53769 10.6585 10.9548 3.31473 20.1005 3.31473ZM13.0251 10.5791C12.7035 10.5791 12.1608 10.6982 11.6985 11.1944C11.2563 11.6906 9.94975 12.9013 9.94975 15.303C9.94975 17.7244 11.7387 20.0466 11.9598 20.3841C12.2412 20.7215 15.4975 25.6835 20.5025 27.7874C21.6884 28.3233 22.6131 28.621 23.3367 28.8393C24.5226 29.2164 25.608 29.1569 26.4724 29.0378C27.4372 28.8989 29.407 27.8469 29.8291 26.6957C30.2513 25.5445 30.2513 24.572 30.1307 24.3537C29.9899 24.1552 29.6683 24.0361 29.1658 23.8178C28.6633 23.5399 26.2111 22.349 25.7688 22.1902C25.3065 22.0314 25.0251 21.952 24.6432 22.4284C24.3216 22.9246 23.3568 24.0361 23.0754 24.3537C22.7739 24.6911 22.4925 24.7308 22.01 24.4926C21.4874 24.2346 19.8794 23.7185 17.9899 22.0513C16.5025 20.7413 15.5176 19.1336 15.2161 18.6374C14.9749 18.1611 15.196 17.8634 15.4372 17.645C15.6583 17.4267 15.9799 17.0694 16.1809 16.7717C16.4422 16.4938 16.5226 16.2755 16.6834 15.9579C16.8442 15.6205 16.7638 15.3426 16.6432 15.1045C16.5226 14.8861 15.5176 12.425 15.0955 11.4524C14.6935 10.4997 14.2915 10.6188 13.9698 10.599C13.6884 10.599 13.3668 10.5791 13.0251 10.5791Z" fill="url(#paint0_linear_69_200)"/>
<defs>
<linearGradient id="paint0_linear_69_200" x1="20" y1="0" x2="20" y2="39.6962" gradientUnits="userSpaceOnUse">
<stop offset="1" stop-color="#F3F4F6"/>
</linearGradient>
</defs>
</svg>
