<svg width="40" height="40" viewBox="0 0 40 40" fill="none" xmlns="http://www.w3.org/2000/svg">
<path d="M11.6 0H28.4C34.8 0 40 5.16051 40 11.5119V28.1843C40 31.2374 38.7779 34.1655 36.6024 36.3244C34.427 38.4833 31.4765 39.6962 28.4 39.6962H11.6C5.2 39.6962 0 34.5357 0 28.1843V11.5119C0 8.45875 1.22214 5.53066 3.39756 3.37176C5.57298 1.21286 8.52349 0 11.6 0ZM11.2 3.96962C9.29044 3.96962 7.45909 4.72243 6.10883 6.06244C4.75857 7.40244 4 9.21988 4 11.1149V28.5813C4 32.531 7.22 35.7266 11.2 35.7266H28.8C30.7096 35.7266 32.5409 34.9738 33.8912 33.6338C35.2414 32.2938 36 30.4763 36 28.5813V11.1149C36 7.16516 32.78 3.96962 28.8 3.96962H11.2ZM30.5 6.94684C31.163 6.94684 31.7989 7.20823 32.2678 7.67351C32.7366 8.13879 33 8.76984 33 9.42785C33 10.0859 32.7366 10.7169 32.2678 11.1822C31.7989 11.6475 31.163 11.9089 30.5 11.9089C29.837 11.9089 29.2011 11.6475 28.7322 11.1822C28.2634 10.7169 28 10.0859 28 9.42785C28 8.76984 28.2634 8.13879 28.7322 7.67351C29.2011 7.20823 29.837 6.94684 30.5 6.94684ZM20 9.92405C22.6522 9.92405 25.1957 10.9696 27.0711 12.8307C28.9464 14.6919 30 17.2161 30 19.8481C30 22.4801 28.9464 25.0043 27.0711 26.8655C25.1957 28.7266 22.6522 29.7722 20 29.7722C17.3478 29.7722 14.8043 28.7266 12.9289 26.8655C11.0536 25.0043 10 22.4801 10 19.8481C10 17.2161 11.0536 14.6919 12.9289 12.8307C14.8043 10.9696 17.3478 9.92405 20 9.92405ZM20 13.8937C18.4087 13.8937 16.8826 14.521 15.7574 15.6377C14.6321 16.7544 14 18.2689 14 19.8481C14 21.4273 14.6321 22.9418 15.7574 24.0585C16.8826 25.1752 18.4087 25.8025 20 25.8025C21.5913 25.8025 23.1174 25.1752 24.2426 24.0585C25.3679 22.9418 26 21.4273 26 19.8481C26 18.2689 25.3679 16.7544 24.2426 15.6377C23.1174 14.521 21.5913 13.8937 20 13.8937Z" fill="url(#paint0_linear_69_198)"/>
<defs>
<linearGradient id="paint0_linear_69_198" x1="20" y1="0" x2="20" y2="39.6962" gradientUnits="userSpaceOnUse">
<stop stop-color="#3B82F6"/>
<stop offset="1" stop-color="#8B5CF6"/>
</linearGradient>
</defs>
</svg>
